<svg xmlns="http://www.w3.org/2000/svg" xmlns:xlink="http://www.w3.org/1999/xlink" version="1.1" x="0px" y="0px" viewBox="0 0 100 100" enable-background="new 0 0 100 100" xml:space="preserve"><path fill="#000000" d="M84.97,0.942c-0.519-0.472-1.244-0.711-2.164-0.711c-2.429,0-6.578,1.641-13.14,4.317  C48.635,13.019,37.502,31.02,31.779,45.212c-4.685-0.767-12.376-1.043-15.397,4.512c-4.475,8.231-3.126,21.501-3.126,21.501  s1.724,2.382,4.139-2.181c1.775-3.354,4.85-6.344,9.159-6.379c-0.295,1.521-0.417,2.41-0.424,2.472l-0.083,0.651l0.449,0.479  c1.651,1.761,3.526,3.445,5.528,5.003c-3.268,4.883-5.833,9.317-4.744,10.101c1.09,0.78,4.469-3.07,8.048-7.729  c2.116,1.397,4.312,2.635,6.509,3.635l0.597,0.272l0.59-0.287c0.061-0.03,1.006-0.5,2.573-1.404  c1.779,4.332-0.121,8.466-2.867,11.368c-3.548,3.747-0.74,4.618-0.74,4.618s13.003-2.971,19.368-9.847  c4.528-4.894,1.253-12.63-1.015-16.688C71.898,55.323,85.2,39.089,86.48,16.621C87.098,6.54,87.27,2.125,84.97,0.942z   M59.683,64.172c-0.594-0.974-1.013-1.555-1.013-1.555l-15.628,9.422c0.832,0.868,1.464,1.738,1.959,2.605  c-1.611,0.923-2.558,1.383-2.558,1.383c-2.12-0.967-4.235-2.153-6.271-3.493c3.42-4.529,6.873-9.52,8.564-11.69  c3.61-4.632,2.094-6.723,2.094-6.723s-2.465-0.767-5.698,4.138c-1.514,2.297-5.135,7.166-8.33,11.856  c-1.902-1.488-3.684-3.099-5.263-4.781c0,0,0.121-0.941,0.436-2.586c1.156,0.16,2.39,0.523,3.703,1.14l3.92-17.824  c0,0-0.958-0.296-2.457-0.602c1.057-2.611,2.3-5.349,3.761-8.129c3.901,3.835,9.146,8.219,15.175,12.543  c4.763,3.419,9.406,6.363,13.555,8.664C63.648,60.602,61.642,62.477,59.683,64.172z M67.745,56.11  c-6.562-3.901-12.213-7.674-16.888-11.029c-5.747-4.124-10.025-7.617-12.731-9.941c0.678-1.298,1.404-2.604,2.178-3.913  c4.552,3.953,15.075,12.513,30.431,21.571C69.751,53.948,68.751,55.053,67.745,56.11z M71.946,32.872  c-2.581,3.598-7.589,4.422-11.188,1.841c-3.599-2.583-4.423-7.592-1.84-11.19c2.581-3.599,7.591-4.422,11.189-1.84  C73.705,24.264,74.53,29.274,71.946,32.872z M85.057,16.512c-0.118,2.09-0.348,4.123-0.666,6.101  c-3.212-1.688-6.549-3.741-9.876-6.127c-3.668-2.633-6.96-5.409-9.77-8.167c1.726-0.903,3.525-1.742,5.409-2.5  c7.917-3.228,12.874-5.175,13.967-3.734C85.836,2.659,85.579,7.98,85.057,16.512z M25.563,84.174c0,0-7.164,14.701-10.077,12.385  C12.572,94.24,25.563,84.174,25.563,84.174z M34.212,87.276c0,0-0.806,13.369-3.149,11.949  C28.722,97.805,34.212,87.276,34.212,87.276z M20.282,77.366c0,0-9.324,7.905-11.184,5.999  C7.237,81.461,20.282,77.366,20.282,77.366z"></path></svg>